<?xml version="1.0" encoding="utf-8"?>
<!-- Generator: Adobe Illustrator 18.0.0, SVG Export Plug-In . SVG Version: 6.00 Build 0)  -->
<!DOCTYPE svg PUBLIC "-//W3C//DTD SVG 1.1//EN" "http://www.w3.org/Graphics/SVG/1.1/DTD/svg11.dtd">
<svg version="1.1" id="图层_1" xmlns="http://www.w3.org/2000/svg" xmlns:xlink="http://www.w3.org/1999/xlink" x="0px" y="0px"
	 viewBox="0 0 1280 1280" enable-background="new 0 0 1280 1280" xml:space="preserve">
<g>
	<polygon fill="#FFFFFF" points="598,898.6 689,772.7 689,559.2 1021.2,308 1009.6,493.8 766,634.1 766,715.9 979.5,640.3 
		927.8,770.6 764.3,789.9 728.1,840.4 871.5,851.6 800.5,914.8 695.1,883.9 598,972.6 	"/>
	<path fill="#FFFFFF" d="M598.5,445.2v-70.2h-101v597.5h101V472.2h-69.6v-27H598.5z M565.8,955.8h-36.9v-36.9h36.9V955.8z
		 M565.8,497.9v401.7h-36.9V497.9H565.8z"/>
	<polygon fill="#FFFFFF" points="277,459.9 497.3,375.1 376,478.4 376,860.8 497.3,972.6 277,879.3 	"/>
</g>
</svg>
