<?xml version="1.0" encoding="utf-8"?>
<!-- Generator: Adobe Illustrator 18.0.0, SVG Export Plug-In . SVG Version: 6.00 Build 0)  -->
<svg version="1.2" baseProfile="tiny" id="图层_1"
	 xmlns="http://www.w3.org/2000/svg" xmlns:xlink="http://www.w3.org/1999/xlink" x="0px" y="0px" viewBox="0 0 2645 1280"
	 xml:space="preserve">
<g>
	<polygon fill="#8CC63F" points="569.5,833.2 643.5,729.2 643.5,552.6 918.4,345 908.9,498.6 707.5,614.6 707.5,682.2 884.2,619.7 
		841.5,727.4 706.4,743.3 676.5,785.1 795,794.3 736.4,846.6 649.1,821.1 569.5,894.4 	"/>
	<path fill="#8CC63F" d="M569.4,458.4v-58h-83.5v493.9h83.5V480.8h-57.6v-22.3H569.4z M542.4,880.5h-30.5V850h30.5V880.5z
		 M542.4,502v332.1h-30.5V502H542.4z"/>
	<polygon fill="#8CC63F" points="303.5,470.6 485.7,400.4 385.5,485.9 385.5,802 485.7,894.4 303.5,817.3 	"/>
</g>
<rect x="993.5" y="512.4" fill="none" width="1509.4" height="354.6"/>
<text transform="matrix(1 0 0 1 993.5 738.5111)" fill="#8CC63F" font-family="'Jokerman-Regular'" font-size="250">Light Novel</text>
</svg>
