<?xml version="1.0" encoding="utf-8"?>
<!-- Generator: Adobe Illustrator 18.0.0, SVG Export Plug-In . SVG Version: 6.00 Build 0)  -->
<!DOCTYPE svg PUBLIC "-//W3C//DTD SVG 1.1//EN" "http://www.w3.org/Graphics/SVG/1.1/DTD/svg11.dtd">
<svg version="1.1" id="图层_1" xmlns="http://www.w3.org/2000/svg" xmlns:xlink="http://www.w3.org/1999/xlink" x="0px" y="0px"
	 viewBox="0 0 1280 1280" enable-background="new 0 0 1280 1280" xml:space="preserve">
<g>
	<polygon fill="#FFFFFF" points="615,819.6 688,716.8 688,542.2 959.8,337 950.2,488.8 751,603.5 751,670.3 925.7,608.5 883.6,715 
		750.1,730.8 720.6,772.1 837.7,781.2 779.8,832.8 694,807.6 615,880.1 	"/>
	<path fill="#FFFFFF" d="M614.7,449.1v-57.3h-82.5v488.3h82.5V471.2h-56.9v-22.1H614.7z M588,866.4h-30.2v-30.2H588V866.4z
		 M588,492.2v328.3h-30.2V492.2H588z"/>
	<polygon fill="#FFFFFF" points="352,461.1 532.1,391.8 433,476.2 433,788.7 532.1,880.1 352,803.9 	"/>
</g>
</svg>
