<?xml version="1.0" encoding="utf-8"?>
<!-- Generator: Adobe Illustrator 18.0.0, SVG Export Plug-In . SVG Version: 6.00 Build 0)  -->
<svg version="1.2" baseProfile="tiny" id="图层_1"
	 xmlns="http://www.w3.org/2000/svg" xmlns:xlink="http://www.w3.org/1999/xlink" x="0px" y="0px" viewBox="0 0 1280 1280"
	 xml:space="preserve">
<g>
	<polygon fill="#8CC63F" points="584,882.9 684,743.3 684,506.5 1052.2,228 1039.3,434 769,589.6 769,680.3 1005.8,596.5 948.5,741 
		767.3,762.3 727.2,818.4 886.1,830.7 807.5,900.8 690.6,866.6 584,964.9 	"/>
	<path fill="#8CC63F" d="M583.5,380.2v-77.8h-112v662.6h112V410.1h-77.2v-29.9H583.5z M547.3,946.4h-41v-41h41V946.4z M547.3,438.6
		v445.5h-41V438.6H547.3z"/>
	<polygon fill="#8CC63F" points="227,396.4 471.4,302.4 337,416.9 337,841 471.4,964.9 227,861.5 	"/>
</g>
</svg>
