<?xml version="1.0" encoding="utf-8"?>
<!-- Generator: Adobe Illustrator 18.0.0, SVG Export Plug-In . SVG Version: 6.00 Build 0)  -->
<svg version="1.2" baseProfile="tiny" id="图层_1"
	 xmlns="http://www.w3.org/2000/svg" xmlns:xlink="http://www.w3.org/1999/xlink" x="0px" y="0px" viewBox="0 0 1280 1280"
	 xml:space="preserve">
<g>
	<polygon fill="#FFFFFF" points="594,890.9 694,751.3 694,514.5 1062.2,236 1049.3,442 779,597.6 779,688.3 1015.8,604.5 958.5,749 
		777.3,770.3 737.2,826.4 896.1,838.7 817.5,908.8 700.6,874.6 594,972.9 	"/>
	<path fill="#FFFFFF" d="M593.5,388.2v-77.8h-112v662.6h112V418.1h-77.2v-29.9H593.5z M557.3,954.4h-41v-41h41V954.4z M557.3,446.6
		v445.5h-41V446.6H557.3z"/>
	<polygon fill="#FFFFFF" points="237,404.4 481.4,310.4 347,424.9 347,849 481.4,972.9 237,869.5 	"/>
</g>
</svg>
