<?xml version="1.0" encoding="utf-8"?>
<!-- Generator: Adobe Illustrator 18.0.0, SVG Export Plug-In . SVG Version: 6.00 Build 0)  -->
<svg version="1.2" baseProfile="tiny" id="图层_1"
	 xmlns="http://www.w3.org/2000/svg" xmlns:xlink="http://www.w3.org/1999/xlink" x="0px" y="0px" viewBox="0 0 2645 1280"
	 xml:space="preserve">
<rect x="-0.5" fill="#8CC63F" width="2646" height="1280"/>
<g>
	<polygon fill="#FFFFFF" points="569.5,833.2 643.5,729.2 643.5,552.6 918.4,345 908.9,498.6 707.5,614.6 707.5,682.2 884.2,619.7 
		841.5,727.4 706.4,743.3 676.5,785.1 795,794.3 736.4,846.6 649.1,821.1 569.5,894.4 	"/>
	<path fill="#FFFFFF" d="M569.4,458.4v-58h-83.5v493.9h83.5V480.8h-57.6v-22.3H569.4z M542.4,880.5h-30.5V850h30.5V880.5z
		 M542.4,502v332.1h-30.5V502H542.4z"/>
	<polygon fill="#FFFFFF" points="303.5,470.6 485.7,400.4 385.5,485.9 385.5,802 485.7,894.4 303.5,817.3 	"/>
</g>
<g>
	<rect x="993.5" y="512.4" fill="none" width="1509.4" height="354.6"/>
	<path fill="#FFFFFF" d="M1164.6,704.9c0,6.8-2.5,12.6-7.6,17.2c-5,4.6-12.6,8.1-22.6,10.4c-5.8,1.3-13.8,2.4-24.2,3.3
		c-10.3,0.9-22.9,1.5-37.8,1.8c-13.6,0.3-24.7,0.9-33.4,1.6c-8.7,0.8-14.8,1.9-18.5,3.4l7.1-103.5l-17-1.3l1.2-20.9l17.5-0.6
		l1.6-22.9l-18.2-1.3l1.2-20.5l18.4,0.6l1.5-24.2l-18.9-2.1l0.2-18.9l69.8,5l-34.5,182.9l5-0.2c3.3-0.2,7.2-0.1,11.8,0.3
		s9.9,0.8,15.9,1.3c6.4,0.6,11.9,1,16.5,1.3c4.6,0.3,8.3,0.4,11.1,0.4c12.9,0,22.5-1.8,28.9-5.4c6.4-3.6,9.6-9.1,9.6-16.4
		c0-2.4-0.3-5.1-1-7.9c-0.7-2.8-1.6-5.8-2.9-9.1l9.2-5c3.3,6,5.8,11.6,7.5,16.7C1163.8,695.9,1164.6,700.6,1164.6,704.9z
		 M1123.2,655.2c0,4.2-1.5,7.8-4.5,10.8c-3,3.1-6.6,4.6-10.7,4.6c-4.2,0-7.9-1.5-10.9-4.6c-3-3.1-4.5-6.7-4.5-10.8
		c0-4,1.5-7.5,4.6-10.4c3.1-3,6.7-4.5,10.8-4.5c4.1,0,7.6,1.5,10.7,4.5C1121.7,647.7,1123.2,651.2,1123.2,655.2z"/>
	<path fill="#FFFFFF" d="M1225.2,752.5l-51.4-6.7l19-118.8h22.9L1225.2,752.5z M1229.3,597.6l-3.1,7.4l-10.6-5.5
		c-1.1,1.5-2.4,2.6-3.8,3.5c-1.4,0.9-2.9,1.5-4.6,2l2.4,10l-8.3,1.2l-2.1-10.5c-1.3-0.2-2.6-0.7-3.8-1.4c-1.3-0.7-2.5-1.5-3.6-2.4
		l-8.1,7.4l-5.6-6.5l9.4-6.8c-0.8-1.5-1.3-3.2-1.4-4.9c-0.1-1.7,0-3.5,0.4-5.5l-10.9-6.8l4-6.6l10,6.8c1-1.2,2.1-2.3,3.4-3.1
		s2.7-1.5,4.3-2l-2.1-14.4h7.8l0.5,13.4c1.8,0.2,3.4,0.7,4.9,1.2c1.5,0.6,2.8,1.3,4.2,2.2l8.5-6.8l5.6,5.6l-9.8,6.6
		c0.7,0.9,1.1,2.3,1.3,4.2c0.2,1.9,0.3,4.2,0.2,7.1L1229.3,597.6z M1210.7,722.6c0-3.1-1.1-5.7-3.3-7.9s-4.9-3.3-8.1-3.3
		c-3,0-5.6,1.1-7.8,3.3s-3.3,4.8-3.3,7.9c0,3.1,1.1,5.7,3.3,7.9c2.2,2.2,4.8,3.2,7.8,3.2c3.2,0,5.9-1.1,8.1-3.2
		C1209.6,728.3,1210.7,725.7,1210.7,722.6z M1210.7,689.5c0-2.8-0.7-5-2.1-6.5c-1.4-1.5-3.6-2.2-6.5-2.2c-3,0-5.3,0.7-6.7,2.2
		s-2.2,3.6-2.2,6.5c0,2.9,0.7,5.1,2.2,6.6s3.7,2.2,6.7,2.2c2.9,0,5.1-0.7,6.5-2.2C1210,694.6,1210.7,692.4,1210.7,689.5z"/>
	<path fill="#FFFFFF" d="M1376.7,622.9l-0.9,10.4l-14.2-0.6l-1.2,10.1l14.3,1.2l-0.9,12.8l-16.1-1.8l0.2,10.4l14.6,2.4l-1,11.2
		l-15.1-1.2L1356,689l14.9,2c-3.3,40.4-10.5,70.8-21.5,90.9c-11,20.2-25.9,30.3-44.6,30.3c-6.5,0-12.7-1.3-18.5-3.8
		c-5.8-2.5-11.4-6.3-16.7-11.3c-4.9-4.6-9-9.8-12.2-15.4c-3.3-5.6-5.8-11.7-7.7-18.4l8.8-5.7c2.1,4.1,4.5,7.8,7.3,11
		c2.7,3.3,5.7,6.3,9,9c3.9,3.2,7.8,5.5,11.8,7c3.9,1.5,7.9,2.3,11.8,2.3c6.1,0,11.4-1.8,16-5.3c4.6-3.5,8.5-8.9,11.6-16.1
		c2.2-5,4-10.6,5.4-16.8c1.4-6.3,2.3-13.1,2.7-20.5c-4.1,2.7-8.6,4.7-13.3,6c-4.7,1.3-9.7,2-15,2c-15.3,0-28.5-5.4-39.4-16.1
		s-16.4-23.8-16.4-39.1c0-15.2,5.5-28.2,16.4-38.9c11-10.7,24.1-16.1,39.4-16.1c6.2,0,12,0.9,17.5,2.7c5.5,1.8,10.7,4.5,15.5,8
		l0.9-18.7L1376.7,622.9z M1335.1,681.1c0-3.9-0.5-7.6-1.5-11c-1-3.5-2.5-6.8-4.5-9.9c-2.2-3.4-4.8-6-7.9-7.7s-6.5-2.6-10.2-2.6
		c-4.5,0-8.6,1.1-12.3,3.3c-3.7,2.2-7.1,5.5-10.1,10c-2.7,4-4.7,8.2-6,12.5c-1.3,4.4-2,8.8-2,13.5c0,4,0.5,7.8,1.4,11.3
		s2.4,6.8,4.3,9.7c2.4,3.5,5,6.1,8.1,7.8c3,1.7,6.4,2.6,10.1,2.6c4.4,0,8.5-1.1,12.3-3.4c3.8-2.2,7.2-5.6,10.1-10.1
		c2.6-4,4.6-8.1,6-12.5C1334.4,690.4,1335.1,685.9,1335.1,681.1z M1323.5,684.1c0,4.2-1.5,7.7-4.5,10.7c-3,3-6.6,4.5-10.9,4.5
		c-4.1,0-7.6-1.5-10.5-4.6s-4.4-6.6-4.4-10.7c0-4.1,1.5-7.6,4.5-10.6c3-3,6.5-4.5,10.4-4.5c4.2,0,7.8,1.5,10.8,4.4
		S1323.5,680,1323.5,684.1z"/>
	<path fill="#FFFFFF" d="M1539.8,713.1c0,2,0,4.8,0,8.4c0,3.6,0,8-0.1,13.2l-46.1,7.6c3.3-14,5.7-26.8,7.3-38.4
		c1.6-11.6,2.4-22,2.4-31.3c0-4.2-0.3-8.2-0.8-12.1c-0.5-3.9-1.2-7.8-2.1-11.5c-1.3-5.3-3-9.3-5-12c-2-2.7-4.4-4-7.2-4
		c-4.7,0-9.6,1.3-14.6,3.8c-5,2.6-10.3,6.4-15.9,11.4l-3.1,90.5l-36.7,7l-2.4-9.6l16.1-2.3l-1.2-16.1l-16.1,2.4l-1.7-8.7l17.2-1.8
		l-1.5-20l-16,2l-1.2-8.8l16.6-1.6l-1.7-20.8l-14.9,2.3l-2.2-9.3l16.1-2.1l-1.2-16.8l-14.5,3.1l-1.8-10.5l15.5-1.8l-1.8-23.8
		l-13.4,2.4l-1.6-9.5l14.4-2.9l-2-23.6l-12.5,2.7l-2.2-9.9l13.7-3.2l-1.2-16.4l-13.3,4.8l-2.9-11.1l62.4-15.3l-4.2,110.6
		c6.1-4.6,12.2-8.1,18.4-10.4c6.1-2.3,12.3-3.4,18.5-3.4c9.6,0,17.7,3.1,24.2,9.2c6.5,6.1,11.5,15.3,14.8,27.5
		c1.9,6.8,3.3,15.3,4.2,25.3C1539.3,688.3,1539.8,699.9,1539.8,713.1z M1494.8,657c-5.1,10.3-9.4,20.9-12.9,31.6
		c-3.5,10.7-6.1,21.6-7.9,32.7l-11.4-4.3c3.6-12.8,7.7-24.6,12.3-35.5c4.6-10.9,9.7-20.9,15.4-29.9L1494.8,657z"/>
	<path fill="#FFFFFF" d="M1649.3,634.5l-1.8,12.7L1623,649l-1.8,14.6l26.2,0.7l-5,17.3l-23.3-1.5l-9.2,67.3l-17.9,3.2l-2.3-72.6
		l-22-1.6l3.7-13.8l18.1,0.4l-0.6-11.5l-23.3,1.8l-5.2-18.9h28L1587,592l44.9-5.1l-6.6,47.6H1649.3z M1617.6,615
		c0-3.3-0.8-5.8-2.5-7.5c-1.7-1.7-4.2-2.5-7.5-2.5s-5.8,0.8-7.5,2.5c-1.7,1.7-2.5,4.2-2.5,7.5c0,3.4,0.8,6,2.5,7.6
		c1.7,1.7,4.2,2.5,7.5,2.5s5.8-0.8,7.5-2.5C1616.7,621,1617.6,618.5,1617.6,615z M1613.2,645.1c0-2.7-0.6-4.7-1.9-6
		c-1.3-1.3-3.2-2-5.8-2c-2.7,0-4.7,0.7-6,2c-1.3,1.3-2,3.3-2,6c0,2.6,0.7,4.5,2,5.8c1.3,1.3,3.3,1.9,6,1.9c2.6,0,4.5-0.6,5.8-1.9
		C1612.6,649.6,1613.2,647.7,1613.2,645.1z"/>
	<path fill="#FFFFFF" d="M1914.5,610.3c0,2.5,0,5.1-0.1,7.6s-0.2,5.2-0.4,7.9l-6.2,125.5l-133.7-135.9l-5.5,116.5l-49.3,0.4
		l14.6-39.6l23.7-1.2l10.2-170.8l117.6,144.9c0.7-7.8,1.3-15.6,2.1-23.3s1.5-15.5,2.2-23.3c0.9-9.3,1.5-17.8,2-25.6
		c0.4-7.8,0.6-14.9,0.6-21.2c0-13.3-1.5-25.1-4.6-35.6c-3.1-10.5-7.8-19.6-14-27.2l8.1-5.1c10.9,12,19.1,26.8,24.6,44.4
		C1911.8,566.4,1914.5,586.9,1914.5,610.3z M1811.4,607.3c0-2.9-0.7-5.1-2.1-6.6c-1.4-1.5-3.6-2.2-6.5-2.2c-2.8,0-5,0.7-6.5,2.2
		s-2.2,3.7-2.2,6.6s0.7,5.1,2.2,6.5c1.5,1.4,3.6,2.1,6.5,2.1c2.9,0,5.1-0.7,6.5-2.1C1810.7,612.5,1811.4,610.3,1811.4,607.3z
		 M1845.4,644.7c0-3.1-1.1-5.8-3.3-8.1c-2.2-2.3-4.8-3.4-7.8-3.4c-3.3,0-6,1.1-8.2,3.4c-2.2,2.2-3.4,4.9-3.4,8.1s1.1,5.8,3.4,7.9
		c2.2,2.1,5,3.2,8.2,3.2c3,0,5.6-1.1,7.8-3.2C1844.3,650.4,1845.4,647.8,1845.4,644.7z M1876,681.7c0-2.8-0.7-5-2.1-6.5
		s-3.6-2.2-6.6-2.2c-2.9,0-5.1,0.7-6.6,2.2s-2.2,3.6-2.2,6.5c0,2.9,0.7,5.1,2.2,6.6s3.7,2.2,6.6,2.2c3,0,5.2-0.7,6.6-2.2
		S1876,684.6,1876,681.7z"/>
	<path fill="#FFFFFF" d="M2082.9,672.9l-15.3,4.2c0.2,1.5,0.4,3.2,0.6,4.9c0.2,1.8,0.2,3.6,0.2,5.6c0,2.9-0.2,5.8-0.6,8.7
		c-0.4,2.8-1,5.7-1.8,8.5l12.3,5.6l-6.2,10.8l-9.7-6.9c-3.1,6.6-7.1,12.2-12,16.8c-4.9,4.6-10.7,8.2-17.4,10.9l3.4,14.6l-11.2,2.8
		l-2.2-14.3c-2.4,0.4-4.6,0.7-6.4,0.9c-1.8,0.2-3.4,0.3-4.7,0.3c-4.9,0-9.7-0.6-14.4-1.8c-4.7-1.2-9.2-3.1-13.5-5.7l-9,14.1
		l-9.7-5.6l10.3-14.7c-3.3-2.7-6.1-5.7-8.6-9.1c-2.5-3.3-4.6-7-6.3-10.9l-15.2,4.8l-2.2-10.4l13.9-3.1c-0.7-3-1.3-5.9-1.6-8.7
		c-0.3-2.8-0.5-5.3-0.5-7.6c0-2.5,0.1-5,0.4-7.4c0.3-2.4,0.8-4.7,1.4-6.9l-13.6-4.4l2.8-10.5l14,5.9c2-5,4.5-9.5,7.6-13.5
		c3.1-4.1,6.8-7.6,11-10.7l-8.2-12.8l9.4-6.5l8.1,13.7c3.7-1.8,7.6-3.1,11.6-4c4-0.9,8-1.3,12.3-1.3c4.2,0,8.2,0.4,12,1.3
		c3.8,0.9,7.4,2.1,10.9,3.7l6.5-11.7l9.5,5.4l-6.6,11.8c4.8,3.5,8.9,7.5,12.3,12.1c3.4,4.6,6.3,9.7,8.6,15.4l14.9-6.6L2082.9,672.9z
		 M2034.3,687.5c0-5.1-0.5-9.8-1.5-14.1s-2.6-8.2-4.7-11.8c-2.6-4.3-5.7-7.5-9.3-9.7c-3.6-2.2-7.8-3.2-12.5-3.2
		c-4.7,0-8.8,1.1-12.5,3.2s-6.8,5.4-9.3,9.8c-2.1,3.6-3.7,7.5-4.7,11.9s-1.5,9-1.5,14c0,5.3,0.5,10.1,1.5,14.5s2.5,8.3,4.6,11.8
		c2.5,4.4,5.6,7.7,9.3,9.8s7.9,3.2,12.6,3.2c4.9,0,9.1-1.1,12.8-3.2s6.7-5.4,9.1-9.8c1.9-3.5,3.5-7.4,4.5-11.8
		C2033.7,697.7,2034.3,692.8,2034.3,687.5z"/>
	<path fill="#FFFFFF" d="M2223,633.5l-59.8,115.9l-3.9-7.3l-12.2,8.7l-5-8.1l12.8-8.8l-7.5-13.4l-13.4,8.5l-5-8.8l13.7-7.4
		l-8.7-15.9l-13.4,8.1l-5-8.1l14-8.2l-8.7-15.3l-13.7,7.2l-5-7.8l13.9-7.7l-10-18.3l-14.7,7.7l-3.9-8l48.3-25.2l32.5,93.6l37.2-89.2
		L2223,633.5z M2176.4,678.6c0,2.7-0.7,4.7-2,5.9c-1.3,1.3-3.3,1.9-5.9,1.9c-2.5,0-4.5-0.6-5.8-1.9c-1.3-1.3-2-3.2-2-5.9
		c0-2.5,0.7-4.4,2-5.7c1.3-1.3,3.3-2,5.8-2c2.6,0,4.6,0.7,5.9,2C2175.8,674.2,2176.4,676.1,2176.4,678.6z M2186.4,652.5
		c0,2.6-0.6,4.6-1.9,5.9c-1.3,1.3-3.2,2-5.9,2c-2.6,0-4.6-0.7-5.9-2c-1.3-1.3-2-3.3-2-5.9c0-2.5,0.7-4.5,2-5.8s3.3-2,5.9-2
		c2.7,0,4.7,0.7,5.9,2C2185.8,648.1,2186.4,650,2186.4,652.5z M2196.9,626.4c0,2.6-0.6,4.5-1.8,5.8c-1.2,1.3-3.1,1.9-5.6,1.9
		c-2.5,0-4.5-0.6-5.8-1.9c-1.3-1.3-2-3.2-2-5.8c0-2.6,0.7-4.6,2-5.9c1.3-1.3,3.3-2,5.8-2c2.5,0,4.4,0.7,5.6,2
		C2196.3,621.8,2196.9,623.8,2196.9,626.4z"/>
	<path fill="#FFFFFF" d="M2367.6,729.3c-2,2-3.9,3.8-5.5,5.4c-1.6,1.6-3.1,2.9-4.3,3.8l9.2,13.6l-8.5,5l-9.3-11.5
		c-3.3,1.9-6.7,3.6-10.4,4.9c-3.7,1.3-7.6,2.3-11.7,2.7l-0.2,14.4l-11-0.7l1-13.3c-3.7,0-7.7-0.4-12-1.2c-4.2-0.8-8.7-1.9-13.3-3.5
		l-6.8,14.6l-11-6l7.4-13.7c-4-2.2-7.6-4.7-10.9-7.6c-3.3-2.9-6.2-6.2-8.7-9.8l-13.1,8.3l-5.5-8.7l14.3-7.4c-1.9-3.9-3.3-7.9-4.4-12
		c-1.1-4.1-1.8-8.3-2.1-12.6l-13.1,3.3l-3.8-10.7l16.8-3.8c0.4-4.6,1.1-8.7,2.1-12.3s2.2-6.9,3.8-9.8l-11.8-7.1l5.6-9.3l11.6,8.1
		c2-2.5,4.3-4.8,6.7-6.8c2.4-2,4.9-3.8,7.6-5.4l-10-14.5l11-5.4l8.1,15.5c2.6-0.8,5-1.5,7.1-2c2.1-0.5,4-0.9,5.6-1.1l3.3-16l8.7,2.7
		l-2.2,12.7c3.3,0,6.3,0.4,9.3,1.2s5.7,2,8.4,3.7l12.1-12l6.8,5.7l-11.5,12.5c1.8,1.7,3.5,3.8,5,6.2c1.5,2.4,2.9,5.1,4.2,8l14.3-4.8
		l2.4,9l-13.8,4.8c0.7,1.8,1.2,3.8,1.6,5.9c0.4,2.1,0.9,4.4,1.3,6.8l-56.8,9.9v1.3c0,5.9,0.6,11.5,1.9,16.8
		c1.3,5.2,3.2,10.2,5.8,14.9c3.1,5.6,6.8,9.8,11.1,12.6c4.3,2.8,9.1,4.2,14.5,4.2c5.5,0,11.3-1.5,17.4-4.4
		c6.1-2.9,12.6-7.4,19.4-13.4L2367.6,729.3z M2317.7,669.3c-0.3-3.6-1.6-6.3-4-8.1c-2.3-1.8-5.6-2.7-9.9-2.7
		c-5.3,0-10.2,1.6-14.8,4.8c-4.6,3.2-7.7,7.2-9.3,12.2L2317.7,669.3z"/>
	<path fill="#FFFFFF" d="M2452.6,529.5l-24.9,209l-38.7-3.8l1.9-11.1l15,2.1l0.6-22.3l-17.1-1.1l0.9-10.1l16.2,0.2l0.4-21.4
		l-17.9-0.7l1.3-9h16.8l0.4-23.4l-19.3-1.2l1.3-12.2l18.3,3.3v-20l-18.3-2.1l1.5-10l17.2-0.4l0.2-21.1l-20-1l2.3-11.5l17.7,1.8
		l0.6-19.9l-21.2-1.6l1.6-12.5H2452.6z"/>
</g>
</svg>
