<?xml version="1.0" encoding="utf-8"?>
<!-- Generator: Adobe Illustrator 18.0.0, SVG Export Plug-In . SVG Version: 6.00 Build 0)  -->
<!DOCTYPE svg PUBLIC "-//W3C//DTD SVG 1.1//EN" "http://www.w3.org/Graphics/SVG/1.1/DTD/svg11.dtd">
<svg version="1.1" id="图层_1" xmlns="http://www.w3.org/2000/svg" xmlns:xlink="http://www.w3.org/1999/xlink" x="0px" y="0px"
	 viewBox="0 0 1440 1440" enable-background="new 0 0 1440 1440" xml:space="preserve">
<g>
	<polygon fill="#FFFFFF" points="713.2,832 781.5,736 781.5,573 1035.3,381.4 1026.5,523.2 840.6,630.2 840.6,692.6 1003.7,634.9 
		964.3,734.4 839.6,749 812,787.6 921.4,796.1 867.3,844.4 786.7,820.8 713.2,888.5 	"/>
	<path fill="#FFFFFF" d="M713.1,486.1v-53.5h-77.1v455.9h77.1V506.7H660v-20.6L713.1,486.1L713.1,486.1z M688.2,875.7h-28.2v-28.2
		h28.2V875.7z M688.2,526.3v306.5h-28.2V526.3H688.2z"/>
	<polygon fill="#FFFFFF" points="467.7,497.3 635.9,432.5 543.4,511.4 543.4,803.2 635.9,888.5 467.7,817.3 	"/>
</g>
<g>
	<path fill="#FFFFFF" d="M396.4,1111.1c0,3.7-1.4,6.9-4.1,9.4c-2.7,2.5-6.9,4.4-12.3,5.7c-3.2,0.7-7.5,1.3-13.2,1.8
		c-5.6,0.5-12.5,0.8-20.6,1c-7.4,0.2-13.4,0.5-18.2,0.9c-4.7,0.4-8.1,1-10.1,1.9l3.9-56.3l-9.3-0.7l0.7-11.4l9.5-0.3l0.9-12.5
		l-9.9-0.7l0.7-11.2l10,0.3l0.8-13.2l-10.3-1.1l0.1-10.3l38,2.7l-18.8,99.6l2.7-0.1c1.8-0.1,3.9-0.1,6.4,0.2s5.4,0.4,8.7,0.7
		c3.5,0.3,6.5,0.5,9,0.7s4.5,0.2,6,0.2c7,0,12.2-1,15.7-2.9c3.5-2,5.2-5,5.2-8.9c0-1.3-0.2-2.8-0.5-4.3s-0.9-3.2-1.6-5l5-2.7
		c1.8,3.3,3.2,6.3,4.1,9.1C395.9,1106.2,396.4,1108.7,396.4,1111.1z M373.8,1084c0,2.3-0.8,4.2-2.4,5.9c-1.6,1.7-3.6,2.5-5.8,2.5
		c-2.3,0-4.3-0.8-5.9-2.5s-2.4-3.6-2.4-5.9c0-2.2,0.8-4.1,2.5-5.7c1.7-1.6,3.6-2.4,5.9-2.4c2.2,0,4.1,0.8,5.8,2.4
		C373,1079.9,373.8,1081.8,373.8,1084z"/>
	<path fill="#FFFFFF" d="M429.3,1137l-28-3.6l10.3-64.7h12.5L429.3,1137z M431.6,1052.6l-1.7,4l-5.8-3c-0.6,0.8-1.3,1.4-2.1,1.9
		s-1.6,0.8-2.5,1.1l1.3,5.4l-4.5,0.7l-1.1-5.7c-0.7-0.1-1.4-0.4-2.1-0.8c-0.7-0.4-1.4-0.8-2-1.3l-4.4,4l-3-3.5l5.1-3.7
		c-0.4-0.8-0.7-1.7-0.8-2.7c-0.1-0.9,0-1.9,0.2-3l-5.9-3.7l2.2-3.6l5.4,3.7c0.5-0.7,1.1-1.3,1.9-1.7c0.7-0.4,1.5-0.8,2.3-1.1
		l-1.1-7.8h4.2l0.3,7.3c1,0.1,1.9,0.4,2.7,0.7c0.8,0.3,1.5,0.7,2.3,1.2l4.6-3.7l3,3l-5.3,3.6c0.4,0.5,0.6,1.3,0.7,2.3
		c0.1,1,0.2,2.3,0.1,3.9L431.6,1052.6z M421.5,1120.7c0-1.7-0.6-3.1-1.8-4.3c-1.2-1.2-2.7-1.8-4.4-1.8c-1.6,0-3,0.6-4.2,1.8
		c-1.2,1.2-1.8,2.6-1.8,4.3s0.6,3.1,1.8,4.3c1.2,1.2,2.6,1.7,4.2,1.7c1.7,0,3.2-0.6,4.4-1.7C420.9,1123.8,421.5,1122.4,421.5,1120.7
		z M421.5,1102.7c0-1.5-0.4-2.7-1.1-3.5c-0.8-0.8-2-1.2-3.5-1.2c-1.6,0-2.9,0.4-3.6,1.2c-0.8,0.8-1.2,2-1.2,3.5s0.4,2.8,1.2,3.6
		c0.8,0.8,2,1.2,3.6,1.2c1.6,0,2.8-0.4,3.5-1.2C421.1,1105.4,421.5,1104.2,421.5,1102.7z"/>
	<path fill="#FFFFFF" d="M511.8,1066.4l-0.5,5.7l-7.7-0.3l-0.7,5.5l7.8,0.7l-0.5,7l-8.8-1l0.1,5.7l7.9,1.3l-0.5,6.1l-8.2-0.7
		l-0.2,6.1l8.1,1.1c-1.8,22-5.7,38.5-11.7,49.5c-6,11-14.1,16.5-24.3,16.5c-3.5,0-6.9-0.7-10.1-2.1c-3.2-1.4-6.2-3.4-9.1-6.2
		c-2.7-2.5-4.9-5.3-6.6-8.4c-1.8-3-3.2-6.4-4.2-10l4.8-3.1c1.1,2.2,2.4,4.2,4,6c1.5,1.8,3.1,3.4,4.9,4.9c2.1,1.7,4.2,3,6.4,3.8
		c2.1,0.8,4.3,1.3,6.4,1.3c3.3,0,6.2-1,8.7-2.9c2.5-1.9,4.6-4.8,6.3-8.8c1.2-2.7,2.2-5.8,2.9-9.1c0.8-3.4,1.3-7.1,1.5-11.2
		c-2.2,1.5-4.7,2.6-7.2,3.3c-2.6,0.7-5.3,1.1-8.2,1.1c-8.3,0-15.5-2.9-21.5-8.8c-5.9-5.8-8.9-13-8.9-21.3c0-8.3,3-15.4,8.9-21.2
		c6-5.8,13.1-8.8,21.5-8.8c3.4,0,6.5,0.5,9.5,1.5c3,1,5.8,2.4,8.4,4.4l0.5-10.2L511.8,1066.4z M489.2,1098.1c0-2.1-0.3-4.1-0.8-6
		c-0.5-1.9-1.4-3.7-2.4-5.4c-1.2-1.9-2.6-3.3-4.3-4.2c-1.7-0.9-3.5-1.4-5.6-1.4c-2.4,0-4.7,0.6-6.7,1.8c-2,1.2-3.9,3-5.5,5.4
		c-1.5,2.2-2.6,4.5-3.3,6.8c-0.7,2.4-1.1,4.8-1.1,7.3c0,2.2,0.3,4.2,0.8,6.2s1.3,3.7,2.3,5.3c1.3,1.9,2.7,3.3,4.4,4.2
		c1.6,0.9,3.5,1.4,5.5,1.4c2.4,0,4.6-0.6,6.7-1.9c2.1-1.2,3.9-3,5.5-5.5c1.4-2.2,2.5-4.4,3.3-6.8
		C488.8,1103.2,489.2,1100.7,489.2,1098.1z M482.9,1099.7c0,2.3-0.8,4.2-2.4,5.8c-1.6,1.6-3.6,2.4-5.9,2.4c-2.2,0-4.1-0.8-5.7-2.5
		c-1.6-1.7-2.4-3.6-2.4-5.8c0-2.2,0.8-4.1,2.4-5.8c1.6-1.6,3.5-2.4,5.7-2.4c2.3,0,4.2,0.8,5.9,2.4S482.9,1097.5,482.9,1099.7z"/>
	<path fill="#FFFFFF" d="M600.6,1115.5c0,1.1,0,2.6,0,4.6c0,2,0,4.4-0.1,7.2l-25.1,4.1c1.8-7.6,3.1-14.6,4-20.9s1.3-12,1.3-17
		c0-2.3-0.2-4.5-0.4-6.6c-0.3-2.1-0.7-4.2-1.1-6.3c-0.7-2.9-1.6-5.1-2.7-6.5c-1.1-1.5-2.4-2.2-3.9-2.2c-2.6,0-5.2,0.7-7.9,2.1
		c-2.7,1.4-5.6,3.5-8.7,6.2l-1.7,49.3l-20,3.8l-1.3-5.2l8.8-1.3l-0.7-8.8l-8.8,1.3l-0.9-4.7l9.4-1l-0.8-10.9l-8.7,1.1l-0.7-4.8
		l9-0.9l-0.9-11.3l-8.1,1.3l-1.2-5.1l8.8-1.1l-0.7-9.1l-7.9,1.7l-1-5.7l8.4-1l-1-13l-7.3,1.3l-0.9-5.2l7.8-1.6l-1.1-12.8l-6.8,1.5
		l-1.2-5.4l7.5-1.7l-0.7-8.9l-7.2,2.6l-1.6-6l34-8.3l-2.3,60.2c3.3-2.5,6.6-4.4,10-5.7c3.3-1.3,6.7-1.9,10.1-1.9
		c5.2,0,9.6,1.7,13.2,5c3.5,3.3,6.3,8.3,8.1,15c1,3.7,1.8,8.3,2.3,13.8C600.3,1102,600.6,1108.3,600.6,1115.5z M576.1,1085
		c-2.8,5.6-5.1,11.4-7,17.2c-1.9,5.8-3.3,11.8-4.3,17.8l-6.2-2.3c2-7,4.2-13.4,6.7-19.3c2.5-5.9,5.3-11.4,8.4-16.3L576.1,1085z"/>
	<path fill="#FFFFFF" d="M660.2,1072.7l-1,6.9l-13.3,1l-1,7.9l14.3,0.4l-2.7,9.4l-12.7-0.8l-5,36.6l-9.7,1.7l-1.3-39.5l-12-0.9
		l2-7.5l9.9,0.2l-0.3-6.3l-12.7,1l-2.8-10.3h15.2l-0.8-23.1l24.4-2.8l-3.6,25.9H660.2z M643,1062.1c0-1.8-0.4-3.2-1.4-4.1
		s-2.3-1.4-4.1-1.4s-3.2,0.4-4.1,1.4c-0.9,0.9-1.4,2.3-1.4,4.1c0,1.9,0.4,3.3,1.4,4.1c0.9,0.9,2.3,1.4,4.1,1.4s3.2-0.4,4.1-1.4
		C642.5,1065.4,643,1064,643,1062.1z M640.6,1078.5c0-1.5-0.3-2.6-1-3.3s-1.7-1.1-3.2-1.1c-1.5,0-2.6,0.4-3.3,1.1
		c-0.7,0.7-1.1,1.8-1.1,3.3c0,1.4,0.4,2.4,1.1,3.2c0.7,0.7,1.8,1,3.3,1c1.4,0,2.4-0.3,3.2-1S640.6,1079.9,640.6,1078.5z"/>
	<path fill="#FFFFFF" d="M804.6,1059.6c0,1.4,0,2.8-0.1,4.1c-0.1,1.4-0.1,2.8-0.2,4.3l-3.4,68.3l-72.8-74l-3,63.4l-26.8,0.2
		l7.9-21.6l12.9-0.7l5.6-93l64,78.9c0.4-4.2,0.7-8.5,1.1-12.7c0.4-4.2,0.8-8.4,1.2-12.7c0.5-5.1,0.8-9.7,1.1-13.9
		c0.2-4.2,0.3-8.1,0.3-11.5c0-7.2-0.8-13.7-2.5-19.4c-1.7-5.7-4.2-10.7-7.6-14.8l4.4-2.8c5.9,6.5,10.4,14.6,13.4,24.2
		C803.1,1035.7,804.6,1046.8,804.6,1059.6z M748.5,1057.9c0-1.6-0.4-2.8-1.1-3.6c-0.8-0.8-2-1.2-3.5-1.2c-1.5,0-2.7,0.4-3.5,1.2
		c-0.8,0.8-1.2,2-1.2,3.6c0,1.6,0.4,2.8,1.2,3.5c0.8,0.8,2,1.1,3.5,1.1c1.6,0,2.8-0.4,3.5-1.1
		C748.1,1060.7,748.5,1059.6,748.5,1057.9z M767,1078.3c0-1.7-0.6-3.2-1.8-4.4c-1.2-1.3-2.6-1.9-4.2-1.9c-1.8,0-3.3,0.6-4.5,1.9
		c-1.2,1.2-1.9,2.7-1.9,4.4c0,1.7,0.6,3.2,1.9,4.3c1.2,1.1,2.7,1.7,4.5,1.7c1.6,0,3-0.6,4.2-1.7C766.4,1081.4,767,1080,767,1078.3z
		 M783.7,1098.4c0-1.5-0.4-2.7-1.1-3.5s-2-1.2-3.6-1.2c-1.6,0-2.8,0.4-3.6,1.2s-1.2,2-1.2,3.5s0.4,2.8,1.2,3.6s2,1.2,3.6,1.2
		c1.6,0,2.8-0.4,3.6-1.2S783.7,1100,783.7,1098.4z"/>
	<path fill="#FFFFFF" d="M896.3,1093.6l-8.3,2.3c0.1,0.8,0.2,1.7,0.3,2.7c0.1,1,0.1,2,0.1,3c0,1.6-0.1,3.2-0.3,4.7
		c-0.2,1.5-0.5,3.1-1,4.6l6.7,3l-3.4,5.9l-5.3-3.8c-1.7,3.6-3.9,6.6-6.5,9.1c-2.7,2.5-5.8,4.5-9.5,5.9l1.9,7.9l-6.1,1.5l-1.2-7.8
		c-1.3,0.2-2.5,0.4-3.5,0.5s-1.9,0.2-2.6,0.2c-2.7,0-5.3-0.3-7.8-1c-2.6-0.7-5-1.7-7.3-3.1l-4.9,7.7l-5.3-3l5.6-8
		c-1.8-1.5-3.3-3.1-4.7-5c-1.4-1.8-2.5-3.8-3.4-5.9l-8.3,2.6l-1.2-5.7l7.6-1.7c-0.4-1.6-0.7-3.2-0.9-4.7c-0.2-1.5-0.3-2.9-0.3-4.1
		c0-1.4,0.1-2.7,0.2-4c0.2-1.3,0.4-2.6,0.8-3.8l-7.4-2.4l1.5-5.7l7.6,3.2c1.1-2.7,2.4-5.2,4.1-7.3c1.7-2.2,3.7-4.1,6-5.8l-4.5-7
		l5.1-3.5l4.4,7.5c2-1,4.1-1.7,6.3-2.2c2.2-0.5,4.4-0.7,6.7-0.7c2.3,0,4.5,0.2,6.5,0.7c2.1,0.5,4,1.1,5.9,2l3.5-6.4l5.2,2.9
		l-3.6,6.4c2.6,1.9,4.8,4.1,6.7,6.6c1.9,2.5,3.4,5.3,4.7,8.4l8.1-3.6L896.3,1093.6z M869.8,1101.6c0-2.8-0.3-5.3-0.8-7.7
		c-0.5-2.3-1.4-4.5-2.6-6.4c-1.4-2.3-3.1-4.1-5.1-5.3c-2-1.2-4.2-1.7-6.8-1.7c-2.6,0-4.8,0.6-6.8,1.7s-3.7,2.9-5.1,5.3
		c-1.1,2-2,4.1-2.6,6.5c-0.5,2.4-0.8,4.9-0.8,7.6c0,2.9,0.3,5.5,0.8,7.9s1.4,4.5,2.5,6.4c1.4,2.4,3,4.2,5.1,5.3
		c2,1.1,4.3,1.7,6.9,1.7c2.7,0,5-0.6,7-1.7s3.6-2.9,5-5.3c1-1.9,1.9-4,2.4-6.4S869.8,1104.5,869.8,1101.6z"/>
	<path fill="#FFFFFF" d="M972.6,1072.2l-32.6,63.1l-2.1-4l-6.6,4.7l-2.7-4.4l7-4.8l-4.1-7.3l-7.3,4.6l-2.7-4.8l7.5-4l-4.7-8.7
		l-7.3,4.4l-2.7-4.4l7.6-4.5l-4.7-8.3l-7.5,3.9l-2.7-4.2l7.6-4.2l-5.4-10l-8,4.2l-2.1-4.4l26.3-13.7l17.7,51l20.3-48.6L972.6,1072.2
		z M947.2,1096.7c0,1.5-0.4,2.6-1.1,3.2c-0.7,0.7-1.8,1-3.2,1c-1.4,0-2.4-0.3-3.2-1c-0.7-0.7-1.1-1.7-1.1-3.2c0-1.4,0.4-2.4,1.1-3.1
		c0.7-0.7,1.8-1.1,3.2-1.1c1.4,0,2.5,0.4,3.2,1.1C946.9,1094.3,947.2,1095.4,947.2,1096.7z M952.6,1082.5c0,1.4-0.3,2.5-1,3.2
		c-0.7,0.7-1.7,1.1-3.2,1.1c-1.4,0-2.5-0.4-3.2-1.1c-0.7-0.7-1.1-1.8-1.1-3.2c0-1.4,0.4-2.4,1.1-3.2s1.8-1.1,3.2-1.1
		c1.5,0,2.6,0.4,3.2,1.1C952.3,1080.1,952.6,1081.2,952.6,1082.5z M958.4,1068.3c0,1.4-0.3,2.4-1,3.2c-0.7,0.7-1.7,1-3,1
		c-1.4,0-2.4-0.3-3.2-1s-1.1-1.7-1.1-3.2c0-1.4,0.4-2.5,1.1-3.2s1.8-1.1,3.2-1.1c1.4,0,2.4,0.4,3,1.1
		C958,1065.8,958.4,1066.9,958.4,1068.3z"/>
	<path fill="#FFFFFF" d="M1051.3,1124.3c-1.1,1.1-2.1,2.1-3,2.9s-1.7,1.6-2.3,2.1l5,7.4l-4.6,2.7l-5.1-6.3c-1.8,1-3.6,2-5.7,2.7
		c-2,0.7-4.1,1.3-6.4,1.5l-0.1,7.8l-6-0.4l0.5-7.2c-2,0-4.2-0.2-6.5-0.7c-2.3-0.4-4.7-1-7.2-1.9l-3.7,7.9l-6-3.3l4-7.5
		c-2.2-1.2-4.1-2.6-5.9-4.1c-1.8-1.6-3.4-3.4-4.7-5.3l-7.1,4.5l-3-4.7l7.8-4c-1-2.1-1.8-4.3-2.4-6.5c-0.6-2.2-1-4.5-1.1-6.9
		l-7.1,1.8l-2.1-5.8l9.1-2.1c0.2-2.5,0.6-4.7,1.1-6.7c0.5-2,1.2-3.8,2.1-5.3l-6.4-3.9l3-5.1l6.3,4.4c1.1-1.4,2.3-2.6,3.6-3.7
		c1.3-1.1,2.7-2.1,4.1-2.9l-5.4-7.9l6-2.9l4.4,8.4c1.4-0.4,2.7-0.8,3.9-1.1c1.1-0.3,2.2-0.5,3-0.6l1.8-8.7l4.7,1.5l-1.2,6.9
		c1.8,0,3.4,0.2,5.1,0.7c1.6,0.4,3.1,1.1,4.6,2l6.6-6.5l3.7,3.1l-6.3,6.8c1,0.9,1.9,2.1,2.7,3.4s1.6,2.8,2.3,4.4l7.8-2.6l1.3,4.9
		l-7.5,2.6c0.4,1,0.7,2.1,0.9,3.2c0.2,1.1,0.5,2.4,0.7,3.7l-30.9,5.4v0.7c0,3.2,0.3,6.3,1,9.1c0.7,2.8,1.7,5.6,3.2,8.1
		c1.7,3,3.7,5.3,6,6.9c2.3,1.5,5,2.3,7.9,2.3c3,0,6.2-0.8,9.5-2.4c3.3-1.6,6.9-4,10.6-7.3L1051.3,1124.3z M1024.1,1091.7
		c-0.2-2-0.9-3.4-2.2-4.4c-1.3-1-3-1.5-5.4-1.5c-2.9,0-5.6,0.9-8.1,2.6s-4.2,3.9-5.1,6.6L1024.1,1091.7z"/>
	<path fill="#FFFFFF" d="M1097.6,1015.6l-13.6,113.8l-21.1-2.1l1-6l8.2,1.1l0.3-12.1l-9.3-0.6l0.5-5.5l8.8,0.1l0.2-11.7l-9.7-0.4
		l0.7-4.9h9.1l0.2-12.7l-10.5-0.7l0.7-6.6l10,1.8v-10.9l-10-1.1l0.8-5.4l9.4-0.2l0.1-11.5l-10.9-0.5l1.3-6.3l9.6,1l0.3-10.8
		l-11.5-0.9l0.9-6.8H1097.6z"/>
</g>
</svg>
