<?xml version="1.0" encoding="utf-8"?>
<!-- Generator: Adobe Illustrator 18.0.0, SVG Export Plug-In . SVG Version: 6.00 Build 0)  -->
<!DOCTYPE svg PUBLIC "-//W3C//DTD SVG 1.1//EN" "http://www.w3.org/Graphics/SVG/1.1/DTD/svg11.dtd">
<svg version="1.1" id="图层_1" xmlns="http://www.w3.org/2000/svg" xmlns:xlink="http://www.w3.org/1999/xlink" x="0px" y="0px"
	 viewBox="-310 1290 620 300" enable-background="new -310 1290 620 300" xml:space="preserve">
<g>
	<g>
		<polygon fill="#FFFFFF" points="-176.6,1486.6 -160.5,1463.9 -160.5,1425.4 -100.4,1380 -102.5,1413.5 -146.5,1438.9 
			-146.5,1453.7 -107.8,1440 -117.2,1463.5 -146.7,1467 -153.2,1476.2 -127.4,1478.2 -140.2,1489.5 -159.2,1484 -176.6,1500 		"/>
		<path fill="#FFFFFF" d="M-176.6,1404.8v-12.6h-18.2V1500h18.2v-90.3h-12.6v-4.9H-176.6L-176.6,1404.8z M-182.6,1497h-6.6v-6.6h6.6
			V1497z M-182.6,1414.3v72.6h-6.6v-72.6H-182.6z"/>
		<polygon fill="#FFFFFF" points="-234.7,1407.4 -194.9,1392.1 -216.8,1410.8 -216.8,1479.8 -194.9,1500 -234.7,1483.1 		"/>
	</g>
	<g>
		<path fill="#FFFFFF" d="M-46.6,1458.6c0,1.5-0.6,2.7-1.7,3.8c-1.1,1-2.7,1.8-5,2.2c-1.3,0.3-3,0.6-5.3,0.7s-5,0.3-8.2,0.4
			c-3,0.1-5.4,0.2-7.3,0.3c-1.9,0.2-3.2,0.4-4.1,0.7l1.5-22.6l-3.7-0.3l0.2-4.6l3.8-0.2l0.3-5l-4-0.3l0.2-4.5l4,0.2l0.3-5.3
			l-4.2-0.5l0.1-4.2l15.3,1.1l-7.5,39.9l1.1-0.1c0.7-0.1,1.6,0,2.6,0.1c1,0.1,2.2,0.2,3.4,0.3c1.4,0.2,2.6,0.2,3.6,0.3
			c1,0.1,1.8,0.1,2.4,0.1c2.8,0,4.9-0.4,6.3-1.2c1.4-0.8,2.1-2,2.1-3.6c0-0.6-0.1-1.1-0.2-1.8c-0.2-0.6-0.3-1.3-0.6-2l2-1.1
			c0.7,1.3,1.3,2.6,1.6,3.7C-46.8,1456.6-46.6,1457.7-46.6,1458.6z M-55.7,1447.8c0,0.9-0.3,1.7-1,2.3c-0.6,0.6-1.4,1-2.3,1
			c-0.9,0-1.8-0.3-2.4-1c-0.6-0.7-1-1.4-1-2.3s0.3-1.6,1-2.2c0.6-0.6,1.4-1,2.3-1c0.9,0,1.7,0.3,2.3,1
			C-56,1446.1-55.7,1446.9-55.7,1447.8z"/>
		<path fill="#FFFFFF" d="M-33.4,1469l-11.2-1.4l4.2-25.9h5L-33.4,1469z M-32.5,1435.2l-0.6,1.6l-2.3-1.2c-0.2,0.3-0.6,0.6-0.8,0.8
			c-0.3,0.2-0.6,0.3-1,0.4l0.6,2.2l-1.8,0.2l-0.5-2.3c-0.3-0.1-0.6-0.2-0.8-0.3c-0.3-0.2-0.6-0.3-0.8-0.6l-1.8,1.6l-1.2-1.4l2.1-1.5
			c-0.2-0.3-0.3-0.7-0.3-1c0-0.4,0-0.8,0.1-1.2l-2.4-1.5l0.9-1.4l2.2,1.5c0.2-0.2,0.5-0.5,0.7-0.6c0.3-0.2,0.6-0.3,1-0.4l-0.5-3.1
			h1.7l0.1,3c0.4,0.1,0.7,0.2,1,0.2c0.3,0.2,0.6,0.3,0.9,0.5l1.8-1.5l1.2,1.2l-2.2,1.4c0.2,0.2,0.2,0.5,0.3,0.9
			c0.1,0.4,0.1,0.9,0.1,1.5L-32.5,1435.2z M-36.6,1462.5c0-0.6-0.2-1.3-0.7-1.8c-0.5-0.5-1-0.7-1.8-0.7c-0.6,0-1.2,0.2-1.7,0.7
			s-0.7,1-0.7,1.8c0,0.6,0.2,1.3,0.7,1.8c0.5,0.5,1,0.7,1.7,0.7c0.7,0,1.3-0.2,1.8-0.7S-36.6,1463.1-36.6,1462.5z M-36.6,1455.3
			c0-0.6-0.2-1.1-0.5-1.4c-0.3-0.3-0.8-0.5-1.4-0.5c-0.6,0-1.1,0.2-1.4,0.5s-0.5,0.8-0.5,1.4c0,0.6,0.2,1.1,0.5,1.4
			c0.3,0.3,0.8,0.5,1.4,0.5c0.6,0,1.1-0.2,1.4-0.5C-36.7,1456.3-36.6,1455.8-36.6,1455.3z"/>
		<path fill="#FFFFFF" d="M-0.3,1440.7l-0.2,2.2l-3.1-0.2l-0.2,2.2l3.1,0.2l-0.2,2.8l-3.5-0.4l0.1,2.2l3.2,0.6l-0.2,2.5l-3.3-0.2
			l-0.1,2.5l3.3,0.4c-0.7,8.8-2.3,15.4-4.7,19.8s-5.7,6.6-9.8,6.6c-1.4,0-2.8-0.3-4.1-0.8s-2.5-1.4-3.7-2.5c-1-1-2-2.2-2.6-3.4
			c-0.7-1.2-1.3-2.6-1.7-4l1.9-1.3c0.5,0.9,1,1.7,1.6,2.4c0.6,0.7,1.3,1.4,2,2c0.9,0.7,1.7,1.2,2.6,1.5c0.9,0.3,1.8,0.5,2.6,0.5
			c1.4,0,2.5-0.4,3.5-1.1c1-0.8,1.8-1.9,2.6-3.5c0.5-1.1,0.9-2.3,1.2-3.7c0.3-1.4,0.5-2.9,0.6-4.5c-0.9,0.6-1.8,1-2.9,1.3
			c-1,0.3-2.1,0.4-3.3,0.4c-3.4,0-6.2-1.2-8.6-3.5s-3.6-5.2-3.6-8.6c0-3.3,1.2-6.2,3.6-8.5c2.4-2.3,5.3-3.5,8.6-3.5
			c1.4,0,2.6,0.2,3.8,0.6s2.3,1,3.4,1.8l0.2-4.1L-0.3,1440.7z M-9.4,1453.4c0-0.9-0.1-1.7-0.3-2.4c-0.2-0.8-0.6-1.5-1-2.2
			c-0.5-0.7-1-1.3-1.8-1.7c-0.7-0.4-1.4-0.6-2.2-0.6c-1,0-1.8,0.2-2.7,0.7c-0.8,0.5-1.5,1.2-2.2,2.2c-0.6,0.9-1,1.8-1.3,2.7
			c-0.3,1-0.4,1.9-0.4,3c0,0.9,0.1,1.7,0.3,2.5c0.2,0.8,0.6,1.5,1,2.1c0.6,0.8,1.1,1.4,1.8,1.7c0.6,0.4,1.4,0.6,2.2,0.6
			c1,0,1.8-0.2,2.7-0.7c0.8-0.5,1.6-1.2,2.2-2.2c0.6-0.9,1-1.8,1.3-2.7C-9.5,1455.4-9.4,1454.5-9.4,1453.4z M-11.9,1454.1
			c0,0.9-0.3,1.7-1,2.3c-0.6,0.6-1.4,1-2.4,1c-0.9,0-1.7-0.3-2.3-1c-0.6-0.6-1-1.4-1-2.3s0.3-1.7,1-2.3c0.6-0.6,1.4-1,2.2-1
			c0.9,0,1.7,0.3,2.3,1C-12.2,1452.3-11.9,1453.2-11.9,1454.1z"/>
		<path fill="#FFFFFF" d="M35.4,1460.4c0,0.4,0,1,0,1.8s0,1.8,0,2.9l-10.1,1.7c0.7-3,1.3-5.8,1.6-8.4c0.3-2.6,0.6-4.8,0.6-6.8
			c0-0.9-0.1-1.8-0.2-2.6c-0.1-0.9-0.2-1.7-0.5-2.5c-0.3-1.1-0.6-2-1.1-2.6c-0.4-0.6-1-0.9-1.6-0.9c-1,0-2.1,0.3-3.2,0.8
			c-1.1,0.6-2.2,1.4-3.4,2.5l-0.6,19.8l-8,1.5l-0.6-2.1l3.5-0.5l-0.2-3.5L8,1462l-0.4-1.9l3.8-0.4l-0.3-4.4l-3.5,0.4l-0.2-1.9
			l3.6-0.3l-0.4-4.6l-3.3,0.5l-0.5-2l3.5-0.5l-0.2-3.7l-3.2,0.6l-0.4-2.2l3.4-0.4l-0.4-5.2l-3,0.6l-0.3-2.1l3.1-0.6l-0.4-5.1
			l-2.7,0.6l-0.5-2.2l3-0.7l-0.2-3.6l-2.9,1l-0.6-2.4l13.6-3.4l-0.9,24.2c1.4-1,2.6-1.8,4-2.2s2.7-0.7,4.1-0.7c2.1,0,3.8,0.6,5.3,2
			c1.4,1.4,2.5,3.4,3.2,6c0.4,1.5,0.7,3.4,0.9,5.5C35.2,1455,35.4,1457.5,35.4,1460.4z M25.5,1448.2c-1.1,2.2-2.1,4.6-2.8,6.9
			c-0.8,2.3-1.4,4.7-1.8,7.1l-2.5-1c0.8-2.8,1.7-5.4,2.7-7.8c1-2.4,2.1-4.6,3.4-6.6L25.5,1448.2z"/>
		<path fill="#FFFFFF" d="M59.3,1443.2l-0.4,2.8l-5.4,0.4l-0.4,3.2l5.8,0.2l-1.1,3.8l-5.1-0.3l-2,14.7l-3.9,0.7l-0.5-15.8l-4.8-0.3
			l0.8-3l3.9,0.1L46,1447l-5.1,0.4l-1.1-4.2h6.1l-0.3-9.3l9.8-1.1l-1.4,10.4L59.3,1443.2L59.3,1443.2z M52.3,1439
			c0-0.7-0.2-1.3-0.6-1.6c-0.4-0.4-0.9-0.6-1.6-0.6c-0.7,0-1.3,0.2-1.6,0.6c-0.4,0.4-0.6,0.9-0.6,1.6c0,0.7,0.2,1.3,0.6,1.7
			s0.9,0.6,1.6,0.6c0.7,0,1.3-0.2,1.6-0.6C52.2,1440.3,52.3,1439.8,52.3,1439z M51.4,1445.5c0-0.6-0.2-1-0.4-1.3
			c-0.3-0.3-0.7-0.4-1.3-0.4c-0.6,0-1,0.2-1.3,0.4s-0.4,0.7-0.4,1.3c0,0.6,0.2,1,0.4,1.3c0.2,0.3,0.7,0.4,1.3,0.4
			c0.6,0,1-0.2,1.3-0.4C51.2,1446.6,51.4,1446.1,51.4,1445.5z"/>
		<path fill="#FFFFFF" d="M117.2,1437.9c0,0.6,0,1.1,0,1.7s-0.1,1.1-0.1,1.8l-1.4,27.4l-29.2-29.7l-1.2,25.4l-10.8,0.1l3.2-8.6
			l5.2-0.2l2.2-37.3l25.7,31.7c0.2-1.7,0.3-3.4,0.5-5.1c0.2-1.7,0.3-3.4,0.5-5.1c0.2-2,0.3-3.9,0.4-5.6c0.1-1.7,0.2-3.3,0.2-4.6
			c0-2.9-0.3-5.5-1-7.8c-0.6-2.3-1.7-4.3-3-5.9l1.8-1.1c2.4,2.6,4.2,5.8,5.4,9.7C116.6,1428.3,117.2,1432.8,117.2,1437.9z
			 M94.6,1437.3c0-0.6-0.2-1.1-0.5-1.4c-0.3-0.3-0.8-0.5-1.4-0.5s-1.1,0.2-1.4,0.5c-0.3,0.3-0.5,0.8-0.5,1.4c0,0.6,0.2,1.1,0.5,1.4
			c0.3,0.3,0.8,0.5,1.4,0.5s1.1-0.2,1.4-0.5S94.6,1437.9,94.6,1437.3z M102.1,1445.4c0-0.6-0.2-1.3-0.7-1.8c-0.5-0.5-1-0.7-1.7-0.7
			c-0.7,0-1.3,0.2-1.8,0.7c-0.5,0.5-0.7,1-0.7,1.8c0,0.7,0.2,1.3,0.7,1.8c0.5,0.5,1.1,0.7,1.8,0.7s1.2-0.2,1.7-0.7
			C101.8,1446.7,102.1,1446.2,102.1,1445.4z M108.8,1453.5c0-0.6-0.2-1.1-0.5-1.4c-0.3-0.3-0.8-0.5-1.4-0.5c-0.6,0-1.1,0.2-1.4,0.5
			c-0.3,0.3-0.5,0.8-0.5,1.4s0.2,1.1,0.5,1.4c0.3,0.3,0.8,0.5,1.4,0.5c0.6,0,1.1-0.2,1.4-0.5
			C108.6,1454.6,108.8,1454.2,108.8,1453.5z"/>
		<path fill="#FFFFFF" d="M153.9,1451.6l-3.4,0.9c0.1,0.3,0.1,0.7,0.2,1c0.1,0.4,0.1,0.8,0.1,1.2c0,0.6-0.1,1.3-0.2,1.9
			c-0.1,0.6-0.2,1.3-0.4,1.8l2.7,1.2l-1.4,2.3l-2.1-1.5c-0.6,1.4-1.5,2.6-2.6,3.7c-1,1-2.3,1.8-3.8,2.4l0.7,3.2l-2.5,0.6l-0.5-3.1
			c-0.6,0.1-1,0.2-1.4,0.2c-0.4,0.1-0.7,0.1-1,0.1c-1,0-2.1-0.2-3.1-0.4c-1-0.2-2-0.6-3-1.3l-2,3l-2.1-1.2l2.2-3.2
			c-0.7-0.6-1.4-1.3-1.8-2c-0.6-0.7-1-1.5-1.4-2.4l-3.3,1l-0.5-2.2l3-0.6c-0.2-0.6-0.3-1.3-0.3-1.9s-0.1-1.1-0.1-1.7
			c0-0.6,0-1.1,0.1-1.6s0.2-1,0.3-1.5l-3-1l0.6-2.3l3,1.3c0.4-1.1,1-2.1,1.7-3c0.6-0.9,1.5-1.7,2.4-2.3l-1.8-2.8l2.1-1.4l1.8,3
			c0.8-0.4,1.7-0.6,2.6-0.9c0.9-0.2,1.8-0.3,2.7-0.3c0.9,0,1.8,0.1,2.6,0.3c0.8,0.2,1.6,0.5,2.4,0.8l1.4-2.6l2.1,1.2l-1.4,2.6
			c1,0.8,1.9,1.6,2.7,2.6c0.7,1,1.4,2.1,1.8,3.4l3.3-1.4L153.9,1451.6z M143.4,1454.8c0-1.1-0.1-2.2-0.3-3s-0.6-1.8-1-2.6
			c-0.6-1-1.3-1.6-2-2.1c-0.8-0.5-1.7-0.7-2.7-0.7s-1.9,0.2-2.7,0.7s-1.5,1.2-2,2.2c-0.5,0.8-0.8,1.6-1,2.6c-0.2,1-0.3,2-0.3,3
			c0,1.1,0.1,2.2,0.3,3.2c0.2,1,0.6,1.8,1,2.6c0.6,1,1.2,1.7,2,2.2s1.8,0.7,2.7,0.7c1,0,2-0.2,2.8-0.7s1.4-1.2,2-2.2
			c0.4-0.8,0.8-1.6,1-2.6C143.2,1457.1,143.4,1456,143.4,1454.8z"/>
		<path fill="#FFFFFF" d="M184.6,1443l-13,25.3l-0.9-1.6l-2.6,1.9l-1.1-1.8l2.8-1.9l-1.6-3l-3,1.8l-1.1-1.9l3-1.6l-1.9-3.4l-3,1.8
			l-1.1-1.8l3-1.8l-1.9-3.4l-3,1.6l-1.1-1.7l3-1.7l-2.2-4l-3.2,1.7l-0.9-1.8l10.6-5.5l7.1,20.5l8.2-19.5L184.6,1443z M174.4,1452.9
			c0,0.6-0.2,1-0.4,1.3c-0.3,0.3-0.7,0.4-1.3,0.4c-0.6,0-1-0.2-1.3-0.4c-0.3-0.3-0.4-0.7-0.4-1.3c0-0.6,0.2-1,0.4-1.3
			s0.7-0.4,1.3-0.4c0.6,0,1,0.2,1.3,0.4C174.2,1451.9,174.4,1452.3,174.4,1452.9z M176.6,1447.2c0,0.6-0.2,1-0.4,1.3
			c-0.3,0.3-0.7,0.4-1.3,0.4c-0.6,0-1-0.2-1.3-0.4c-0.3-0.3-0.4-0.7-0.4-1.3c0-0.6,0.2-1,0.4-1.3c0.3-0.3,0.7-0.4,1.3-0.4
			c0.6,0,1,0.2,1.3,0.4C176.4,1446.2,176.6,1446.6,176.6,1447.2z M178.9,1441.4c0,0.6-0.2,1-0.4,1.3c-0.2,0.3-0.6,0.4-1.2,0.4
			s-1-0.2-1.3-0.4c-0.3-0.3-0.4-0.7-0.4-1.3c0-0.6,0.2-1,0.4-1.3c0.3-0.3,0.7-0.4,1.3-0.4s1,0.2,1.2,0.4
			C178.7,1440.5,178.9,1440.9,178.9,1441.4z"/>
		<path fill="#FFFFFF" d="M216.2,1463.9c-0.4,0.4-0.9,0.8-1.2,1.2c-0.3,0.3-0.6,0.6-1,0.8l2,3l-1.8,1.1l-2-2.5
			c-0.7,0.4-1.4,0.8-2.2,1c-0.8,0.3-1.7,0.5-2.6,0.6l-0.1,3.1l-2.4-0.2l0.2-2.9c-0.8,0-1.7-0.1-2.6-0.2c-0.9-0.2-1.9-0.4-2.9-0.8
			l-1.5,3.2l-2.4-1.3l1.6-3c-0.9-0.5-1.7-1-2.4-1.7c-0.7-0.6-1.4-1.4-1.9-2.2l-2.9,1.8l-1.2-1.9l3.1-1.6c-0.4-0.9-0.7-1.8-1-2.6
			s-0.4-1.8-0.5-2.7l-2.9,0.7l-0.8-2.3l3.7-0.8c0.1-1,0.2-1.9,0.5-2.7c0.2-0.8,0.5-1.5,0.8-2.2l-2.6-1.5l1.2-2l2.6,1.8
			c0.4-0.6,1-1,1.4-1.5c0.6-0.4,1-0.8,1.7-1.2l-2.2-3.2l2.4-1.2l1.8,3.4c0.6-0.2,1.1-0.3,1.5-0.4c0.5-0.1,0.9-0.2,1.2-0.2l0.7-3.5
			l1.9,0.6l-0.5,2.8c0.7,0,1.4,0.1,2,0.2c0.6,0.2,1.3,0.4,1.8,0.8l2.6-2.6l1.5,1.3l-2.5,2.7c0.4,0.4,0.8,0.8,1.1,1.4
			c0.3,0.6,0.6,1.1,0.9,1.8l3.1-1l0.6,2l-3,1c0.2,0.4,0.2,0.8,0.3,1.3c0.1,0.5,0.2,1,0.3,1.5l-12.4,2.2v0.3c0,1.3,0.2,2.5,0.4,3.7
			c0.3,1.1,0.7,2.2,1.3,3.3c0.6,1.2,1.5,2.2,2.4,2.7c0.9,0.6,2,0.9,3.2,0.9s2.5-0.3,3.8-1c1.4-0.6,2.7-1.6,4.2-3L216.2,1463.9z
			 M205.2,1450.8c-0.1-0.8-0.3-1.4-0.9-1.8c-0.5-0.4-1.2-0.6-2.2-0.6c-1.1,0-2.2,0.3-3.2,1c-1,0.7-1.7,1.6-2,2.6L205.2,1450.8z"/>
		<path fill="#FFFFFF" d="M234.7,1420.3l-5.4,45.7l-8.5-0.8l0.4-2.4l3.3,0.5l0.2-4.9l-3.8-0.2l0.2-2.2l3.5,0.1l0.1-4.6l-3.9-0.2
			l0.3-2h3.7l0.1-5.1l-4.2-0.2l0.3-2.6l4,0.7v-4.4l-4-0.5l0.3-2.2l3.8-0.1l0.1-4.6l-4.4-0.2l0.5-2.5l3.8,0.4l0.2-4.3l-4.6-0.3
			l0.3-2.7h13.9V1420.3z"/>
	</g>
</g>
</svg>
